<?xml version="1.0" encoding="iso-8859-1"?>
<!-- Generator: Adobe Illustrator 19.0.0, SVG Export Plug-In . SVG Version: 6.00 Build 0)  -->
<svg version="1.1" id="Layer_1" xmlns="http://www.w3.org/2000/svg" xmlns:xlink="http://www.w3.org/1999/xlink" x="0px" y="0px"
	 viewBox="0 0 512 512" style="enable-background:new 0 0 512 512;" xml:space="preserve">
<circle style="fill:#FFEDB5;" cx="256" cy="256" r="256"/>
<path style="fill:#FEE187;" d="M272.556,511.452C406.223,502.917,512,391.821,512,256c0-6.742-0.265-13.424-0.776-20.035
	L362.587,87.328L109.618,230.934v81.306l59.595,59.595l-17.144,19.127L272.556,511.452z"/>
<path style="fill:#477F3C;" d="M256,118.282c-86.24,0-156.151,69.911-156.151,156.151S169.76,430.585,256,430.585
	s156.151-69.911,156.151-156.151S342.24,118.282,256,118.282z M256,354.163c-44.034,0-79.731-35.697-79.731-79.731
	s35.697-79.731,79.731-79.731s79.731,35.697,79.731,79.731S300.034,354.163,256,354.163z"/>
<path style="fill:#2E5E24;" d="M256,118.282c-0.384,0-0.765,0.012-1.148,0.014v76.435c0.384-0.005,0.764-0.029,1.148-0.029
	c44.034,0,79.731,35.697,79.731,79.731S300.034,354.163,256,354.163c-0.384,0-0.765-0.024-1.148-0.029v76.435
	c0.383,0.003,0.764,0.016,1.148,0.016c86.24,0,156.151-69.911,156.151-156.151S342.24,118.282,256,118.282z"/>
<polygon style="fill:#930000;" points="219.224,265.812 256,228.948 292.49,265.812 292.49,145.387 219.224,145.387 "/>
<polygon style="fill:#820000;" points="254.852,145.387 254.852,230.098 256,228.948 292.49,265.812 292.49,145.387 "/>
<g>
	<circle style="fill:#FFFFFF;" cx="343.212" cy="336.575" r="5.387"/>
	<circle style="fill:#FFFFFF;" cx="157.462" cy="327.921" r="5.387"/>
	<circle style="fill:#FFFFFF;" cx="381.845" cy="313.216" r="5.387"/>
	<circle style="fill:#FFFFFF;" cx="127.931" cy="236.33" r="5.387"/>
	<circle style="fill:#FFFFFF;" cx="219.229" cy="391.085" r="5.387"/>
</g>
<g>
	<circle style="fill:#FF5419;" cx="381.845" cy="274.429" r="12.067"/>
	<circle style="fill:#FF5419;" cx="292.495" cy="396.464" r="12.067"/>
	<circle style="fill:#FF5419;" cx="145.394" cy="201.128" r="12.067"/>
</g>
<g>
	<circle style="fill:#FFC61B;" cx="348.591" cy="224.263" r="12.067"/>
	<circle style="fill:#FFC61B;" cx="335.731" cy="370.054" r="12.067"/>
	<circle style="fill:#FFC61B;" cx="192.577" cy="380.707" r="12.067"/>
	<circle style="fill:#FFC61B;" cx="149.411" cy="265.809" r="12.067"/>
</g>
<path style="fill:#C92F00;" d="M146.073,97.227c0,0,14.696,30.768,1.898,67.031c0,0,17.065,27.196,100.786,0l-0.907-48.092
	L146.073,97.227z"/>
<g>
	<path style="fill:#930000;" d="M250.894,119.463c0,0-55.46-63.991-97.587-35.195S250.894,119.463,250.894,119.463z"/>
	<path style="fill:#930000;" d="M366.021,97.032c0,0-14.793,30.963-1.995,67.225c0,0-17.065,27.196-100.786,0l0.907-48.092
		L366.021,97.032z"/>
</g>
<path style="fill:#820000;" d="M261.106,119.463c0,0,55.46-63.991,97.587-35.195S261.106,119.463,261.106,119.463z"/>
<circle style="fill:#FF5419;" cx="256" cy="141.326" r="29.863"/>
<path style="fill:#C92F00;" d="M256,111.463c-0.388,0-0.764,0.043-1.148,0.059v59.611c0.384,0.016,0.76,0.059,1.148,0.059
	c16.493,0,29.863-13.371,29.863-29.863C285.863,124.833,272.493,111.463,256,111.463z"/>
<g>
</g>
<g>
</g>
<g>
</g>
<g>
</g>
<g>
</g>
<g>
</g>
<g>
</g>
<g>
</g>
<g>
</g>
<g>
</g>
<g>
</g>
<g>
</g>
<g>
</g>
<g>
</g>
<g>
</g>
</svg>
