<?xml version="1.0" encoding="iso-8859-1"?>
<!-- Generator: Adobe Illustrator 19.0.0, SVG Export Plug-In . SVG Version: 6.00 Build 0)  -->
<svg version="1.1" id="Layer_1" xmlns="http://www.w3.org/2000/svg" xmlns:xlink="http://www.w3.org/1999/xlink" x="0px" y="0px"
	 viewBox="0 0 512 512" style="enable-background:new 0 0 512 512;" xml:space="preserve">
<circle style="fill:#FFEDB5;" cx="256" cy="256" r="256"/>
<path style="fill:#FEE187;" d="M262.061,511.924c119.956-2.788,219.493-88.09,244.09-201.349L285.655,90.079l-3.975,4.134
	L256,68.534l-27.188,142.105l-19.392-19.392l-44.704,14.705l54.555,54.555l-8.663,45.275l-37.857-37.857l-38.747,15.85
	l59.583,59.583l-78.948,21.145L262.061,511.924z"/>
<path style="fill:#6CAF5F;" d="M397.36,364.503c-78.071,78.07-204.65,78.07-282.721,0l141.359-151.274L397.36,364.503z"/>
<g>
	<path style="fill:#477F3C;" d="M397.36,364.503L255.998,213.228l-0.572,0.612v209.208
		C306.779,423.196,358.179,403.684,397.36,364.503z"/>
	<path style="fill:#477F3C;" d="M377.996,283.774c-67.377,67.377-176.616,67.375-243.991,0l121.994-130.551L377.996,283.774z"/>
</g>
<path style="fill:#2E5E24;" d="M377.996,283.774L255.998,153.222l-0.572,0.614V334.3
	C299.772,334.445,344.162,317.607,377.996,283.774z"/>
<path style="fill:#6CAF5F;" d="M347.284,205.952c-50.416,50.416-132.155,50.416-182.57,0L256,108.265L347.284,205.952z"/>
<path style="fill:#477F3C;" d="M347.284,205.952L256,108.265l-0.574,0.614V243.75C288.656,243.896,321.931,231.305,347.284,205.952z
	"/>
<polygon style="fill:#FFC61B;" points="256,68.534 265.164,87.102 285.655,90.079 270.827,104.532 274.329,124.942 256,115.307 
	237.671,124.942 241.173,104.532 226.345,90.079 246.836,87.102 "/>
<polygon style="fill:#EAA22F;" points="285.655,90.079 265.164,87.102 256,68.534 255.426,69.698 255.426,115.609 256,115.305 
	274.329,124.942 270.827,104.532 "/>
<circle style="fill:#FFC61B;" cx="202.628" cy="198.025" r="5.387"/>
<circle style="fill:#C92F00;" cx="312.889" cy="261.689" r="7.758"/>
<circle style="fill:#E09112;" cx="208.024" cy="358.141" r="5.387"/>
<g>
	<circle style="fill:#FFC61B;" cx="294.65" cy="287.892" r="5.387"/>
	<circle style="fill:#FFC61B;" cx="285.651" cy="400.808" r="5.387"/>
	<circle style="fill:#FFC61B;" cx="237.037" cy="307.493" r="5.387"/>
</g>
<circle style="fill:#E09112;" cx="268.998" cy="179.493" r="9.481"/>
<circle style="fill:#FF5419;" cx="202.628" cy="267.412" r="12.067"/>
<circle style="fill:#FFC61B;" cx="316.837" cy="369.778" r="12.067"/>
<g>
</g>
<g>
</g>
<g>
</g>
<g>
</g>
<g>
</g>
<g>
</g>
<g>
</g>
<g>
</g>
<g>
</g>
<g>
</g>
<g>
</g>
<g>
</g>
<g>
</g>
<g>
</g>
<g>
</g>
</svg>
